<svg width="36" height="36" viewBox="0 0 36 36" fill="none" xmlns="http://www.w3.org/2000/svg">
<g id="Bell">
<path id="Vector" d="M30.9473 24.8822C30.1514 23.5125 28.9688 19.6495 28.9688 14.625C28.9688 11.7159 27.8131 8.92596 25.7561 6.86892C23.699 4.81188 20.9091 3.65625 18 3.65625C15.0909 3.65625 12.301 4.81188 10.2439 6.86892C8.18689 8.92596 7.03125 11.7159 7.03125 14.625C7.03125 19.6509 5.84719 23.5125 5.05125 24.8822C4.87662 25.1812 4.78395 25.521 4.78261 25.8673C4.78126 26.2136 4.87128 26.5542 5.04359 26.8546C5.21589 27.155 5.46438 27.4046 5.76399 27.5783C6.06359 27.7519 6.4037 27.8435 6.75 27.8438H12.7238C12.9287 29.0945 13.5715 30.2318 14.5375 31.0524C15.5035 31.873 16.7297 32.3235 17.9972 32.3235C19.2647 32.3235 20.4909 31.873 21.4569 31.0524C22.4228 30.2318 23.0657 29.0945 23.2706 27.8438H29.25C29.5961 27.843 29.9358 27.7511 30.235 27.5772C30.5342 27.4033 30.7823 27.1537 30.9543 26.8533C31.1263 26.553 31.2161 26.2127 31.2146 25.8666C31.2131 25.5206 31.1205 25.181 30.9459 24.8822H30.9473ZM18 30.6562C17.1772 30.656 16.3786 30.3782 15.7332 29.8678C15.0878 29.3575 14.6335 28.6443 14.4436 27.8438H21.5564C21.3665 28.6443 20.9122 29.3575 20.2668 29.8678C19.6214 30.3782 18.8228 30.656 18 30.6562ZM29.4905 26.0156C29.4673 26.0587 29.4328 26.0946 29.3906 26.1194C29.3485 26.1442 29.3003 26.1569 29.2514 26.1562H6.75C6.7011 26.1569 6.65295 26.1442 6.6108 26.1194C6.56864 26.0946 6.5341 26.0587 6.51094 26.0156C6.48626 25.9729 6.47326 25.9244 6.47326 25.875C6.47326 25.8256 6.48626 25.7771 6.51094 25.7344C7.57547 23.9062 8.71875 19.6439 8.71875 14.625C8.71875 12.1635 9.6966 9.80274 11.4372 8.06217C13.1777 6.32159 15.5385 5.34375 18 5.34375C20.4615 5.34375 22.8223 6.32159 24.5628 8.06217C26.3034 9.80274 27.2813 12.1635 27.2813 14.625C27.2813 19.6425 28.4259 23.8992 29.4905 25.7344C29.5152 25.7771 29.5282 25.8256 29.5282 25.875C29.5282 25.9244 29.5152 25.9729 29.4905 26.0156Z" fill="black"/>
</g>
</svg>
