<svg width="20" height="20" viewBox="0 0 20 20" fill="none" xmlns="http://www.w3.org/2000/svg">
<path d="M4.38281 15.8672C3.66406 15.1484 4.14063 13.6406 3.77344 12.7578C3.40625 11.875 2 11.1016 2 10.125C2 9.14844 3.39063 8.40625 3.77344 7.49219C4.15625 6.57813 3.66406 5.10156 4.38281 4.38281C5.10156 3.66406 6.60938 4.14063 7.49219 3.77344C8.375 3.40625 9.14844 2 10.125 2C11.1016 2 11.8437 3.39063 12.7578 3.77344C13.6719 4.15625 15.1484 3.66406 15.8672 4.38281C16.5859 5.10156 16.1094 6.60938 16.4766 7.49219C16.8438 8.375 18.25 9.14844 18.25 10.125C18.25 11.1016 16.8594 11.8437 16.4766 12.7578C16.0938 13.6719 16.5859 15.1484 15.8672 15.8672C15.1484 16.5859 13.6406 16.1094 12.7578 16.4766C11.875 16.8438 11.1016 18.25 10.125 18.25C9.14844 18.25 8.40625 16.8594 7.49219 16.4766C6.57813 16.0938 5.10156 16.5859 4.38281 15.8672Z" stroke="#C2185B" stroke-linecap="round" stroke-linejoin="round"/>
<path d="M13.5 12.9543C13.291 13.1788 13.0743 13.38 12.8498 13.558C12.6254 13.7361 12.3777 13.8909 12.1068 14.0224C11.8437 14.1463 11.5534 14.2392 11.2361 14.3011C10.9187 14.3707 10.5627 14.4056 10.168 14.4056C9.57198 14.4056 9.01858 14.2972 8.50774 14.0805C7.9969 13.8638 7.55573 13.5697 7.18421 13.1981C6.81269 12.8189 6.52245 12.3738 6.31347 11.863C6.10449 11.3522 6 10.8065 6 10.226V10.2028C6 9.62229 6.10449 9.0805 6.31347 8.5774C6.52245 8.06656 6.81269 7.62152 7.18421 7.24226C7.55573 6.85526 8.00077 6.55341 8.51935 6.33669C9.03793 6.11223 9.61068 6 10.2376 6C10.6169 6 10.9613 6.03096 11.2709 6.09288C11.5882 6.1548 11.8746 6.23994 12.13 6.3483C12.3854 6.45666 12.6215 6.58824 12.8382 6.74303C13.055 6.89783 13.2562 7.06811 13.4419 7.25387L12.3042 8.56579C11.9868 8.27941 11.6618 8.05495 11.3289 7.89241C11.0039 7.72988 10.6362 7.64861 10.226 7.64861C9.88545 7.64861 9.56811 7.7144 9.27399 7.84597C8.98762 7.97755 8.73994 8.15944 8.53096 8.39164C8.32198 8.62384 8.15944 8.89474 8.04334 9.20433C7.92724 9.50619 7.86919 9.83127 7.86919 10.1796V10.2028C7.86919 10.5511 7.92724 10.88 8.04334 11.1896C8.15944 11.4992 8.31811 11.7701 8.51935 12.0023C8.72833 12.2345 8.97601 12.4203 9.26238 12.5596C9.5565 12.6912 9.87771 12.757 10.226 12.757C10.6904 12.757 11.0813 12.6718 11.3986 12.5015C11.7237 12.3313 12.0449 12.0991 12.3622 11.805L13.5 12.9543Z" fill="#C2185B"/>
</svg>
