<svg width="36" height="36" viewBox="0 0 36 36" fill="none" xmlns="http://www.w3.org/2000/svg">
<path d="M29.8463 11.7788L21.9713 3.90375C21.8132 3.74547 21.5987 3.65645 21.375 3.65625H7.875C7.35286 3.65625 6.8521 3.86367 6.48288 4.23288C6.11367 4.6021 5.90625 5.10286 5.90625 5.625V30.375C5.90625 30.8971 6.11367 31.3979 6.48288 31.7671C6.8521 32.1363 7.35286 32.3438 7.875 32.3438H28.125C28.6471 32.3438 29.1479 32.1363 29.5171 31.7671C29.8863 31.3979 30.0938 30.8971 30.0938 30.375V12.375C30.0936 12.1513 30.0045 11.9368 29.8463 11.7788ZM22.2188 6.53625L27.2138 11.5312H22.2188V6.53625ZM28.125 30.6562H7.875C7.80041 30.6562 7.72887 30.6266 7.67613 30.5739C7.62338 30.5211 7.59375 30.4496 7.59375 30.375V5.625C7.59375 5.55041 7.62338 5.47887 7.67613 5.42613C7.72887 5.37338 7.80041 5.34375 7.875 5.34375H20.5312V12.375C20.5312 12.5988 20.6201 12.8134 20.7784 12.9716C20.9366 13.1299 21.1512 13.2188 21.375 13.2188H28.4062V30.375C28.4062 30.4496 28.3766 30.5211 28.3239 30.5739C28.2711 30.6266 28.1996 30.6562 28.125 30.6562ZM21.9713 21.9037C22.1293 22.062 22.218 22.2764 22.218 22.5C22.218 22.7236 22.1293 22.938 21.9713 23.0963L18.5963 26.4713C18.438 26.6293 18.2236 26.718 18 26.718C17.7764 26.718 17.562 26.6293 17.4038 26.4713L14.0288 23.0963C13.8797 22.9363 13.7986 22.7248 13.8024 22.5062C13.8063 22.2876 13.8948 22.079 14.0494 21.9244C14.204 21.7698 14.4126 21.6813 14.6312 21.6774C14.8498 21.6736 15.0613 21.7547 15.2212 21.9037L17.1562 23.8373V16.875C17.1562 16.6512 17.2451 16.4366 17.4034 16.2784C17.5616 16.1201 17.7762 16.0312 18 16.0312C18.2238 16.0312 18.4384 16.1201 18.5966 16.2784C18.7549 16.4366 18.8438 16.6512 18.8438 16.875V23.8373L20.7787 21.9037C20.937 21.7457 21.1514 21.657 21.375 21.657C21.5986 21.657 21.813 21.7457 21.9713 21.9037Z" fill="black"/>
</svg>
