<svg width="36" height="36" viewBox="0 0 36 36" fill="none" xmlns="http://www.w3.org/2000/svg">
<path d="M11.25 31.5C11.25 31.7984 11.1315 32.0845 10.9205 32.2955C10.7095 32.5065 10.4234 32.625 10.125 32.625H7.875C7.27826 32.625 6.70597 32.3879 6.28401 31.966C5.86205 31.544 5.625 30.9717 5.625 30.375V25.875C5.625 25.5766 5.74353 25.2905 5.95451 25.0795C6.16548 24.8685 6.45163 24.75 6.75 24.75C7.04837 24.75 7.33452 24.8685 7.54549 25.0795C7.75647 25.2905 7.875 25.5766 7.875 25.875V30.375H10.125C10.4234 30.375 10.7095 30.4935 10.9205 30.7045C11.1315 30.9155 11.25 31.2016 11.25 31.5ZM30.375 12.375V19.125C30.375 19.4234 30.2565 19.7095 30.0455 19.9205C29.8345 20.1315 29.5484 20.25 29.25 20.25C28.9516 20.25 28.6655 20.1315 28.4545 19.9205C28.2435 19.7095 28.125 19.4234 28.125 19.125V13.5H21.375C21.0766 13.5 20.7905 13.3815 20.5795 13.1705C20.3685 12.9595 20.25 12.6734 20.25 12.375V5.625H16.875C16.5766 5.625 16.2905 5.50647 16.0795 5.2955C15.8685 5.08452 15.75 4.79837 15.75 4.5C15.75 4.20163 15.8685 3.91548 16.0795 3.70451C16.2905 3.49353 16.5766 3.375 16.875 3.375H21.375C21.5228 3.37488 21.6691 3.40389 21.8057 3.46035C21.9423 3.51681 22.0664 3.59962 22.1709 3.70406L30.0459 11.5791C30.1504 11.6836 30.2332 11.8077 30.2897 11.9443C30.3461 12.0809 30.3751 12.2272 30.375 12.375ZM22.5 11.25H26.5345L22.5 7.21547V11.25ZM11.25 3.375H7.875C7.27826 3.375 6.70597 3.61205 6.28401 4.03401C5.86205 4.45597 5.625 5.02826 5.625 5.625V9C5.625 9.29837 5.74353 9.58452 5.95451 9.7955C6.16548 10.0065 6.45163 10.125 6.75 10.125C7.04837 10.125 7.33452 10.0065 7.54549 9.7955C7.75647 9.58452 7.875 9.29837 7.875 9V5.625H11.25C11.5484 5.625 11.8345 5.50647 12.0455 5.2955C12.2565 5.08452 12.375 4.79837 12.375 4.5C12.375 4.20163 12.2565 3.91548 12.0455 3.70451C11.8345 3.49353 11.5484 3.375 11.25 3.375ZM29.25 23.625C28.9516 23.625 28.6655 23.7435 28.4545 23.9545C28.2435 24.1655 28.125 24.4516 28.125 24.75V30.375H27C26.7016 30.375 26.4155 30.4935 26.2045 30.7045C25.9935 30.9155 25.875 31.2016 25.875 31.5C25.875 31.7984 25.9935 32.0845 26.2045 32.2955C26.4155 32.5065 26.7016 32.625 27 32.625H28.125C28.7217 32.625 29.294 32.3879 29.716 31.966C30.1379 31.544 30.375 30.9717 30.375 30.375V24.75C30.375 24.4516 30.2565 24.1655 30.0455 23.9545C29.8345 23.7435 29.5484 23.625 29.25 23.625ZM6.75 21.375C7.04837 21.375 7.33452 21.2565 7.54549 21.0455C7.75647 20.8345 7.875 20.5484 7.875 20.25V14.625C7.875 14.3266 7.75647 14.0405 7.54549 13.8295C7.33452 13.6185 7.04837 13.5 6.75 13.5C6.45163 13.5 6.16548 13.6185 5.95451 13.8295C5.74353 14.0405 5.625 14.3266 5.625 14.625V20.25C5.625 20.5484 5.74353 20.8345 5.95451 21.0455C6.16548 21.2565 6.45163 21.375 6.75 21.375ZM21.375 30.375H15.75C15.4516 30.375 15.1655 30.4935 14.9545 30.7045C14.7435 30.9155 14.625 31.2016 14.625 31.5C14.625 31.7984 14.7435 32.0845 14.9545 32.2955C15.1655 32.5065 15.4516 32.625 15.75 32.625H21.375C21.6734 32.625 21.9595 32.5065 22.1705 32.2955C22.3815 32.0845 22.5 31.7984 22.5 31.5C22.5 31.2016 22.3815 30.9155 22.1705 30.7045C21.9595 30.4935 21.6734 30.375 21.375 30.375Z" fill="black"/>
</svg>
