<svg width="20" height="20" viewBox="0 0 20 20" fill="none" xmlns="http://www.w3.org/2000/svg">
<g id="SignOut">
<path id="Vector" d="M13.2371 7.38791L15.1249 9.275H8.125C7.93272 9.275 7.74831 9.35138 7.61235 9.48735C7.47638 9.62331 7.4 9.80772 7.4 10C7.4 10.1923 7.47638 10.3767 7.61235 10.5127C7.74831 10.6486 7.93272 10.725 8.125 10.725H15.1249L13.2371 12.6121L13.2371 12.6121C13.1011 12.7481 13.0247 12.9326 13.0247 13.125C13.0247 13.3174 13.1011 13.5019 13.2371 13.6379C13.3731 13.7739 13.5576 13.8503 13.75 13.8503C13.9424 13.8503 14.1269 13.7739 14.2629 13.6379L17.3879 10.5129C17.3879 10.5129 17.3879 10.5129 17.3879 10.5129C17.4553 10.4456 17.5087 10.3656 17.5452 10.2776C17.5817 10.1896 17.6005 10.0953 17.6005 10C17.6005 9.90473 17.5817 9.81038 17.5452 9.72237C17.5087 9.63437 17.4553 9.55443 17.3879 9.4871C17.3879 9.48709 17.3879 9.48708 17.3879 9.48706L14.2629 6.3621C14.1269 6.22607 13.9424 6.14965 13.75 6.14965C13.5576 6.14965 13.3731 6.22607 13.2371 6.3621C13.1011 6.49813 13.0247 6.68263 13.0247 6.875C13.0247 7.06737 13.1011 7.25187 13.2371 7.3879L13.2371 7.38791ZM8.63765 17.3877C8.77362 17.2517 8.85 17.0673 8.85 16.875C8.85 16.6827 8.77362 16.4983 8.63765 16.3623C8.50169 16.2264 8.31728 16.15 8.125 16.15H3.85V3.85H8.125C8.31728 3.85 8.50169 3.77362 8.63765 3.63765C8.77362 3.50169 8.85 3.31728 8.85 3.125C8.85 2.93272 8.77362 2.74831 8.63765 2.61235C8.50169 2.47638 8.31728 2.4 8.125 2.4H3.75C3.39196 2.4 3.04858 2.54223 2.79541 2.79541C2.54223 3.04858 2.4 3.39196 2.4 3.75V16.25C2.4 16.608 2.54223 16.9514 2.79541 17.2046C3.04858 17.4578 3.39196 17.6 3.75 17.6H8.125C8.31728 17.6 8.50169 17.5236 8.63765 17.3877Z" fill="#0B090D" stroke="black" stroke-width="0.2"/>
</g>
</svg>
