<svg width="21" height="20" viewBox="0 0 21 20" fill="none" xmlns="http://www.w3.org/2000/svg">
<path d="M17.97 17.058L14.0582 13.1471C15.192 11.7859 15.7574 10.04 15.6367 8.27263C15.516 6.50524 14.7186 4.85241 13.4104 3.65797C12.1021 2.46353 10.3837 1.81944 8.61269 1.85969C6.84165 1.89994 5.1543 2.62143 3.90166 3.87407C2.64902 5.12671 1.92753 6.81406 1.88728 8.5851C1.84703 10.3561 2.49112 12.0745 3.68556 13.3828C4.88 14.691 6.53283 15.4884 8.30021 15.6091C10.0676 15.7298 11.8135 15.1644 13.1746 14.0306L17.0856 17.9424C17.1436 18.0004 17.2126 18.0465 17.2885 18.0779C17.3643 18.1094 17.4456 18.1255 17.5278 18.1255C17.6099 18.1255 17.6912 18.1094 17.7671 18.0779C17.8429 18.0465 17.9119 18.0004 17.97 17.9424C18.028 17.8843 18.0741 17.8154 18.1055 17.7395C18.1369 17.6636 18.1531 17.5823 18.1531 17.5002C18.1531 17.4181 18.1369 17.3367 18.1055 17.2609C18.0741 17.185 18.028 17.1161 17.97 17.058ZM3.15277 8.75018C3.15277 7.63766 3.48267 6.55012 4.10075 5.6251C4.71883 4.70007 5.59734 3.9791 6.62517 3.55336C7.65301 3.12761 8.78401 3.01622 9.87515 3.23326C10.9663 3.4503 11.9686 3.98603 12.7552 4.7727C13.5419 5.55937 14.0776 6.56165 14.2947 7.6528C14.5117 8.74394 14.4003 9.87494 13.9746 10.9028C13.5488 11.9306 12.8279 12.8091 11.9028 13.4272C10.9778 14.0453 9.89029 14.3752 8.77777 14.3752C7.28643 14.3735 5.85665 13.7804 4.80212 12.7258C3.74758 11.6713 3.15442 10.2415 3.15277 8.75018Z" fill="#444444"/>
</svg>
