<svg width="28" height="28" viewBox="0 0 28 28" fill="none" xmlns="http://www.w3.org/2000/svg">
<path d="M24.8629 11.2801C24.4505 10.8492 24.024 10.4051 23.8632 10.0146C23.7144 9.65699 23.7057 9.06418 23.6969 8.48996C23.6805 7.42246 23.663 6.21277 22.8219 5.37168C21.9808 4.53059 20.7711 4.51309 19.7036 4.49668C19.1294 4.48793 18.5366 4.47918 18.179 4.33043C17.7896 4.16965 17.3444 3.74309 16.9135 3.33074C16.1588 2.60559 15.3013 1.78418 14.1594 1.78418C13.0175 1.78418 12.1611 2.60559 11.4054 3.33074C10.9744 3.74309 10.5304 4.16965 10.1399 4.33043C9.78442 4.47918 9.18942 4.48793 8.6152 4.49668C7.5477 4.51309 6.33802 4.53059 5.49692 5.37168C4.65583 6.21277 4.6438 7.42246 4.62192 8.48996C4.61317 9.06418 4.60442 9.65699 4.45567 10.0146C4.29489 10.404 3.86833 10.8492 3.45599 11.2801C2.73083 12.0348 1.90942 12.8923 1.90942 14.0342C1.90942 15.1761 2.73083 16.0325 3.45599 16.7882C3.86833 17.2192 4.29489 17.6632 4.45567 18.0537C4.60442 18.4114 4.61317 19.0042 4.62192 19.5784C4.63833 20.6459 4.65583 21.8556 5.49692 22.6967C6.33802 23.5378 7.5477 23.5553 8.6152 23.5717C9.18942 23.5804 9.78224 23.5892 10.1399 23.7379C10.5293 23.8987 10.9744 24.3253 11.4054 24.7376C12.16 25.4628 13.0175 26.2842 14.1594 26.2842C15.3013 26.2842 16.1577 25.4628 16.9135 24.7376C17.3444 24.3253 17.7885 23.8987 18.179 23.7379C18.5366 23.5892 19.1294 23.5804 19.7036 23.5717C20.7711 23.5553 21.9808 23.5378 22.8219 22.6967C23.663 21.8556 23.6805 20.6459 23.6969 19.5784C23.7057 19.0042 23.7144 18.4114 23.8632 18.0537C24.024 17.6643 24.4505 17.2192 24.8629 16.7882C25.588 16.0336 26.4094 15.1761 26.4094 14.0342C26.4094 12.8923 25.588 12.0359 24.8629 11.2801ZM19.1535 12.0282L13.0285 18.1532C12.9472 18.2346 12.8507 18.2991 12.7445 18.3432C12.6383 18.3872 12.5244 18.4099 12.4094 18.4099C12.2944 18.4099 12.1806 18.3872 12.0744 18.3432C11.9681 18.2991 11.8716 18.2346 11.7904 18.1532L9.16536 15.5282C9.00118 15.3641 8.90894 15.1414 8.90894 14.9092C8.90894 14.677 9.00118 14.4543 9.16536 14.2901C9.32955 14.1259 9.55223 14.0337 9.78442 14.0337C10.0166 14.0337 10.2393 14.1259 10.4035 14.2901L12.4094 16.2971L17.9154 10.7901C17.9967 10.7088 18.0932 10.6443 18.1994 10.6003C18.3056 10.5563 18.4195 10.5337 18.5344 10.5337C18.6494 10.5337 18.7632 10.5563 18.8695 10.6003C18.9757 10.6443 19.0722 10.7088 19.1535 10.7901C19.2348 10.8714 19.2993 10.9679 19.3433 11.0741C19.3873 11.1804 19.4099 11.2942 19.4099 11.4092C19.4099 11.5241 19.3873 11.638 19.3433 11.7442C19.2993 11.8504 19.2348 11.9469 19.1535 12.0282Z" fill="#8F14CC"/>
<circle cx="14.1594" cy="14.0342" r="8.75" fill="#8F14CC"/>
<path d="M19.4094 17.6452C19.1169 17.9595 18.8134 18.2412 18.4992 18.4904C18.185 18.7397 17.8382 18.9564 17.459 19.1406C17.0905 19.314 16.6842 19.444 16.2399 19.5307C15.7956 19.6282 15.2972 19.677 14.7446 19.677C13.9102 19.677 13.1354 19.5253 12.4203 19.2219C11.7051 18.9185 11.0874 18.5067 10.5673 17.9866C10.0472 17.4556 9.64085 16.8326 9.34828 16.1174C9.05571 15.4022 8.90942 14.6383 8.90942 13.8256V13.7931C8.90942 12.9804 9.05571 12.2219 9.34828 11.5175C9.64085 10.8024 10.0472 10.1793 10.5673 9.64834C11.0874 9.10655 11.7105 8.68395 12.4365 8.38054C13.1625 8.0663 13.9644 7.90918 14.8421 7.90918C15.373 7.90918 15.8552 7.95252 16.2887 8.03921C16.733 8.1259 17.1339 8.24509 17.4915 8.3968C17.8491 8.5485 18.1795 8.73271 18.483 8.94943C18.7864 9.16615 19.0681 9.40454 19.3282 9.6646L17.7353 11.5013C17.291 11.1004 16.8359 10.7861 16.3699 10.5586C15.9148 10.331 15.4001 10.2172 14.8258 10.2172C14.3491 10.2172 13.9048 10.3093 13.493 10.4935C13.0921 10.6778 12.7453 10.9324 12.4528 11.2575C12.1602 11.5826 11.9326 11.9618 11.7701 12.3952C11.6076 12.8178 11.5263 13.273 11.5263 13.7606V13.7931C11.5263 14.2807 11.6076 14.7412 11.7701 15.1747C11.9326 15.6081 12.1548 15.9874 12.4365 16.3124C12.7291 16.6375 13.0758 16.8976 13.4768 17.0926C13.8885 17.2768 14.3382 17.3689 14.8258 17.3689C15.476 17.3689 16.0232 17.2497 16.4675 17.0113C16.9226 16.773 17.3723 16.4479 17.8165 16.0361L19.4094 17.6452Z" fill="white"/>
</svg>
